<?xml version="1.0" encoding="utf-8"?>
<!-- Generator: Adobe Illustrator 19.0.0, SVG Export Plug-In . SVG Version: 6.00 Build 0)  -->
<svg version="1.1" id="Layer_1" xmlns="http://www.w3.org/2000/svg" xmlns:xlink="http://www.w3.org/1999/xlink" x="0px" y="0px"
	 viewBox="0 0 50 50" style="enable-background:new 0 0 50 50;" xml:space="preserve">
<style type="text/css">
	.st0{fill:#555555;}
	.st1{fill:#6DBD47;}
	.st2{fill:#FBAB18;}
	.st3{fill:#FFFFFF;}
	.st4{fill:#51B5CF;}
	.st5{fill:#231F20;}
	.st6{fill:#8FA620;}
	.st7{fill:#6B3B55;}
</style>
<g>
	<g>
		<g>
			<g>
				<path class="st0" d="M24.1,43.1c-11.8,0-21.4-4.4-21.4-9.8s9.6-9.8,21.4-9.8c11.8,0,21.4,4.4,21.4,9.8S35.9,43.1,24.1,43.1z
					 M24.1,24c-11.5,0-20.9,4.2-20.9,9.3s9.4,9.3,20.9,9.3c11.5,0,20.9-4.2,20.9-9.3S35.7,24,24.1,24z"/>
			</g>
			<g>
				<path class="st1" d="M5.5,21.6c-0.4,0.6-0.5,1.3-0.4,2c-1.1-0.7-2.7-0.4-3.4,0.7c-0.8,1.1-0.5,2.6,0.5,3.5
					c-0.7,0.1-1.3,0.5-1.7,1c-0.8,1.2-0.5,2.8,0.6,3.6c1.2,0.8,11.1-0.6,11.1-0.6s-2-9.9-3.1-10.7C7.9,20.2,6.3,20.5,5.5,21.6z"/>
			</g>
			<g>
				<path class="st2" d="M33.8,12.3c-1.8,1.1-3.6,1.6-4.7,1.8c-0.8,0.2-3.6-0.2-4.7-0.1c-4.2,0.6-7.1,4.4-6.5,8.6
					c0.6,4.2,4.4,7.1,8.6,6.5c3.7-0.5,5.7-3,6.6-7.1c0.6-2.7,1.8-5.1,3-7.1C35.1,14.2,34.3,13.3,33.8,12.3z"/>
			</g>
			<g>
				<path class="st0" d="M25.4,29.4C25.4,29.4,25.4,29.4,25.4,29.4c-3.9,0-7.2-2.9-7.8-6.8c-0.3-2.1,0.3-4.1,1.5-5.8
					c1.3-1.7,3.1-2.8,5.2-3c0.5-0.1,1.5,0,2.5,0c0.9,0.1,1.8,0.1,2.2,0c1.3-0.2,3.7-0.9,6.1-2.8c0,0-0.1-0.1-0.1-0.1
					c-0.9-1-0.8-2.5,0.2-3.3c0.4-0.4,1-0.6,1.6-0.6c0.7,0,1.3,0.3,1.8,0.8c0.5,0.6,0.7,1.4,0.5,2.2c0.8-0.1,1.6,0.2,2.1,0.8
					c0.9,1,0.8,2.5-0.2,3.3c-0.4,0.4-1,0.6-1.6,0.6c-0.7,0-1.3-0.3-1.8-0.8c-0.1-0.1-0.2-0.3-0.3-0.4c-1.5,2.1-3.3,5.1-4.1,8.7
					c-0.9,4.4-3.1,6.8-6.8,7.3C26.1,29.4,25.8,29.4,25.4,29.4z M25.1,14.2c-0.3,0-0.5,0-0.7,0c-1.9,0.3-3.7,1.3-4.9,2.9
					c-1.2,1.6-1.7,3.5-1.4,5.5c0.5,3.6,3.6,6.4,7.3,6.4c0,0,0,0,0,0c0.3,0,0.7,0,1-0.1c3.4-0.5,5.5-2.7,6.3-6.9
					c0.9-3.8,2.9-7.1,4.4-9.2l0.3-0.4l0.2,0.5c0.1,0.3,0.2,0.5,0.4,0.7c0.4,0.4,0.9,0.6,1.4,0.6c0.5,0,0.9-0.2,1.3-0.5
					c0.8-0.7,0.8-1.9,0.1-2.6c-0.5-0.6-1.3-0.8-2-0.5l-0.6,0.2l0.3-0.6c0.3-0.7,0.2-1.5-0.3-2.1c-0.4-0.4-0.9-0.6-1.4-0.6
					c-0.5,0-0.9,0.2-1.3,0.5c-0.8,0.7-0.8,1.9-0.1,2.6c0.1,0.1,0.2,0.2,0.3,0.3L36,11l-0.3,0.2c-2.6,2.1-5.2,2.8-6.6,3.1
					c-0.4,0.1-1.3,0-2.3,0C26.2,14.2,25.6,14.2,25.1,14.2z"/>
			</g>
			<g>
				<ellipse class="st3" cx="13.9" cy="31.6" rx="6" ry="5.5"/>
			</g>
			<g>
				<path class="st2" d="M24.2,15.4c-9.2,0-16.7,6.2-16.7,13.8c0,1.8,0.4,3.3,1.1,4.5v-3.9c0-1,0.8-1.9,1.9-1.9c1,0,1.9,0.8,1.9,1.9
					v7.5c3,1.7,7.2,2.4,11.8,2.4c9.2,0,16.7-2.9,16.7-10.5C40.8,21.6,33.4,15.4,24.2,15.4z"/>
			</g>
			<g>
				<path class="st0" d="M24.2,39.9c-4.9,0-9.1-0.8-11.9-2.4c-0.1,0-0.1-0.1-0.1-0.2v-7.5c0-0.9-0.7-1.6-1.6-1.6
					c-0.9,0-1.6,0.7-1.6,1.6v3.9c0,0.1-0.1,0.2-0.2,0.2c-0.1,0-0.2,0-0.3-0.1c-0.8-1.4-1.2-2.9-1.2-4.7c0-7.8,7.6-14.1,16.9-14.1
					s16.9,6.3,16.9,14.1C41.1,36.1,35.1,39.9,24.2,39.9z M12.6,37.2c2.8,1.5,6.8,2.3,11.5,2.3c6.1,0,16.4-1.3,16.4-10.2
					c0-7.5-7.4-13.6-16.4-13.6c-9.1,0-16.4,6.1-16.4,13.6c0,1.2,0.2,2.4,0.6,3.4v-2.8c0-1.2,1-2.1,2.1-2.1c1.2,0,2.1,1,2.1,2.1V37.2
					z"/>
			</g>
			<g>
				<path class="st2" d="M41.9,20.3c-2,0.8-3.8,1-5,1.1c-0.9,0-3.6-0.8-4.7-0.8c-4.3-0.1-7.8,3.4-7.9,7.7c-0.1,4.3,3.4,7.8,7.7,7.9
					c3.8,0.1,6.2-2.1,7.7-6.1c1-2.6,2.6-4.9,4.2-6.7C42.9,22.5,42.3,21.5,41.9,20.3z"/>
			</g>
			<g>
				<path class="st0" d="M32,36.4C32,36.4,32,36.4,32,36.4l-0.2,0c-2.1,0-4.2-0.9-5.6-2.4c-1.5-1.5-2.3-3.6-2.3-5.7
					c0.1-4.4,3.7-7.9,8-7.9l0.1,0c0.6,0,1.6,0.2,2.5,0.4c0.8,0.2,1.7,0.4,2.1,0.4c1.4,0,3.9-0.4,6.7-1.8c0-0.1-0.1-0.1-0.1-0.2
					C43,18.6,42.9,18,43,17.3s0.5-1.2,1-1.5c0.4-0.3,0.9-0.4,1.3-0.4c0.8,0,1.6,0.4,2,1.1c0.5,0.7,0.5,1.5,0.2,2.3
					c0.8,0,1.6,0.4,2,1.1c0.7,1.1,0.4,2.6-0.7,3.3c-0.4,0.3-0.9,0.4-1.3,0.4c-0.8,0-1.6-0.4-2-1.1c-0.1-0.1-0.2-0.3-0.2-0.5
					c-1.8,1.8-4.1,4.7-5.5,8.1C38.3,34.4,35.7,36.4,32,36.4z M32,20.9c-4.1,0-7.5,3.3-7.5,7.4c0,2,0.7,3.9,2.1,5.4
					c1.4,1.4,3.3,2.3,5.3,2.3l0.1,0c3.5,0,5.9-1.9,7.3-6c1.5-3.7,4-6.7,5.9-8.6l0.3-0.3l0.1,0.5c0,0.3,0.1,0.5,0.3,0.7
					c0.4,0.5,1,0.9,1.6,0.9c0.4,0,0.7-0.1,1.1-0.3c0.9-0.6,1.1-1.8,0.5-2.7c-0.4-0.6-1.2-1-2-0.8l-0.6,0.1l0.4-0.5
					c0.5-0.6,0.5-1.5,0-2.1c-0.4-0.5-1-0.9-1.6-0.9c-0.4,0-0.7,0.1-1.1,0.3c-0.4,0.3-0.7,0.7-0.8,1.2c-0.1,0.5,0,1,0.3,1.4
					c0.1,0.1,0.1,0.2,0.3,0.3l0.2,0.2L44,19.6c-2.9,1.7-5.7,2-7.1,2.1l-0.1,0c-0.5,0-1.3-0.2-2.2-0.4c-0.9-0.2-1.9-0.4-2.4-0.4
					L32,20.9z"/>
			</g>
			<g>
				<g>
					<circle class="st4" cx="13" cy="37.3" r="1.8"/>
				</g>
				<g>
					<path class="st0" d="M13,39.4c-1.1,0-2.1-0.9-2.1-2.1c0-1.1,0.9-2.1,2.1-2.1c1.1,0,2.1,0.9,2.1,2.1C15,38.5,14.1,39.4,13,39.4z
						 M13,35.8c-0.9,0-1.6,0.7-1.6,1.6c0,0.9,0.7,1.6,1.6,1.6s1.6-0.7,1.6-1.6C14.5,36.5,13.8,35.8,13,35.8z"/>
				</g>
			</g>
			<g>
				<g>
					<circle class="st4" cx="17.6" cy="38.9" r="1.8"/>
				</g>
				<g>
					<path class="st0" d="M17.6,41c-1.1,0-2.1-0.9-2.1-2.1c0-1.1,0.9-2.1,2.1-2.1c1.1,0,2.1,0.9,2.1,2.1C19.6,40.1,18.7,41,17.6,41z
						 M17.6,37.4c-0.9,0-1.6,0.7-1.6,1.6c0,0.9,0.7,1.6,1.6,1.6s1.6-0.7,1.6-1.6C19.1,38.1,18.4,37.4,17.6,37.4z"/>
				</g>
			</g>
			<g>
				<g>
					<circle class="st4" cx="22.6" cy="39.5" r="1.8"/>
				</g>
				<g>
					<path class="st0" d="M22.6,41.5c-1.1,0-2.1-0.9-2.1-2.1c0-1.1,0.9-2.1,2.1-2.1c1.1,0,2.1,0.9,2.1,2.1
						C24.7,40.6,23.8,41.5,22.6,41.5z M22.6,37.9c-0.9,0-1.6,0.7-1.6,1.6c0,0.9,0.7,1.6,1.6,1.6c0.9,0,1.6-0.7,1.6-1.6
						C24.2,38.6,23.5,37.9,22.6,37.9z"/>
				</g>
			</g>
			<g>
				<g>
					<circle class="st4" cx="40.1" cy="34.5" r="1.8"/>
				</g>
				<g>
					<path class="st0" d="M40.1,36.6c-1.1,0-2.1-0.9-2.1-2.1c0-1.1,0.9-2.1,2.1-2.1c1.1,0,2.1,0.9,2.1,2.1
						C42.1,35.7,41.2,36.6,40.1,36.6z M40.1,33c-0.9,0-1.6,0.7-1.6,1.6c0,0.9,0.7,1.6,1.6,1.6c0.9,0,1.6-0.7,1.6-1.6
						C41.6,33.7,40.9,33,40.1,33z"/>
				</g>
			</g>
		</g>
		<g>
			<circle class="st3" cx="14.4" cy="22.7" r="1.6"/>
		</g>
		<g>
			<circle class="st3" cx="17.5" cy="22.7" r="0.6"/>
		</g>
		<g>
			<circle class="st3" cx="27.1" cy="27.2" r="0.8"/>
		</g>
	</g>
	<g>
		<circle class="st1" cx="14" cy="9.9" r="3"/>
	</g>
	<g>
		<path class="st0" d="M21.6,12c-0.8,0-1.5-0.7-1.5-1.5c0-0.8,0.7-1.5,1.5-1.5c0.8,0,1.5,0.7,1.5,1.5C23.2,11.4,22.5,12,21.6,12z
			 M21.6,9.5c-0.6,0-1,0.5-1,1c0,0.6,0.5,1,1,1c0.6,0,1-0.5,1-1C22.7,10,22.2,9.5,21.6,9.5z"/>
	</g>
	<g>
		<path class="st0" d="M46.5,29.4c-0.7,0-1.2-0.6-1.2-1.2c0-0.7,0.6-1.2,1.2-1.2c0.7,0,1.2,0.6,1.2,1.2
			C47.7,28.8,47.1,29.4,46.5,29.4z M46.5,27.4c-0.4,0-0.7,0.3-0.7,0.7c0,0.4,0.3,0.7,0.7,0.7c0.4,0,0.7-0.3,0.7-0.7
			C47.2,27.7,46.9,27.4,46.5,27.4z"/>
	</g>
	<g>
		<circle class="st4" cx="7.1" cy="15.1" r="1.7"/>
	</g>
</g>
<g>
	<g>
		<g>
			<g>
				<path class="st5" d="M24.1,43.1c-11.8,0-21.4-4.4-21.4-9.8s9.6-9.8,21.4-9.8c11.8,0,21.4,4.4,21.4,9.8S35.9,43.1,24.1,43.1z
					 M24.1,24c-11.5,0-20.9,4.2-20.9,9.3s9.4,9.3,20.9,9.3c11.5,0,20.9-4.2,20.9-9.3S35.7,24,24.1,24z"/>
			</g>
			<g>
				<path class="st6" d="M5.5,21.6c-0.4,0.6-0.5,1.3-0.4,2c-1.1-0.7-2.7-0.4-3.4,0.7c-0.8,1.1-0.5,2.6,0.5,3.5
					c-0.7,0.1-1.3,0.5-1.7,1c-0.8,1.2-0.5,2.8,0.6,3.6c1.2,0.8,11.1-0.6,11.1-0.6s-2-9.9-3.1-10.7C7.9,20.2,6.3,20.5,5.5,21.6z"/>
			</g>
			<g>
				<path class="st2" d="M33.8,12.3c-1.8,1.1-3.6,1.6-4.7,1.8c-0.8,0.2-3.6-0.2-4.7-0.1c-4.2,0.6-7.1,4.4-6.5,8.6
					c0.6,4.2,4.4,7.1,8.6,6.5c3.7-0.5,5.7-3,6.6-7.1c0.6-2.7,1.8-5.1,3-7.1C35.1,14.2,34.3,13.3,33.8,12.3z"/>
			</g>
			<g>
				<path class="st5" d="M25.4,29.4C25.4,29.4,25.4,29.4,25.4,29.4c-3.9,0-7.2-2.9-7.8-6.8c-0.3-2.1,0.3-4.1,1.5-5.8
					c1.3-1.7,3.1-2.8,5.2-3c0.5-0.1,1.5,0,2.5,0c0.9,0.1,1.8,0.1,2.2,0c1.3-0.2,3.7-0.9,6.1-2.8c0,0-0.1-0.1-0.1-0.1
					c-0.9-1-0.8-2.5,0.2-3.3c0.4-0.4,1-0.6,1.6-0.6c0.7,0,1.3,0.3,1.8,0.8c0.5,0.6,0.7,1.4,0.5,2.2c0.8-0.1,1.6,0.2,2.1,0.8
					c0.9,1,0.8,2.5-0.2,3.3c-0.4,0.4-1,0.6-1.6,0.6c-0.7,0-1.3-0.3-1.8-0.8c-0.1-0.1-0.2-0.3-0.3-0.4c-1.5,2.1-3.3,5.1-4.1,8.7
					c-0.9,4.4-3.1,6.8-6.8,7.3C26.1,29.4,25.8,29.4,25.4,29.4z M25.1,14.2c-0.3,0-0.5,0-0.7,0c-1.9,0.3-3.7,1.3-4.9,2.9
					c-1.2,1.6-1.7,3.5-1.4,5.5c0.5,3.6,3.6,6.4,7.3,6.4c0,0,0,0,0,0c0.3,0,0.7,0,1-0.1c3.4-0.5,5.5-2.7,6.3-6.9
					c0.9-3.8,2.9-7.1,4.4-9.2l0.3-0.4l0.2,0.5c0.1,0.3,0.2,0.5,0.4,0.7c0.4,0.4,0.9,0.6,1.4,0.6c0.5,0,0.9-0.2,1.3-0.5
					c0.8-0.7,0.8-1.9,0.1-2.6c-0.5-0.6-1.3-0.8-2-0.5l-0.6,0.2l0.3-0.6c0.3-0.7,0.2-1.5-0.3-2.1c-0.4-0.4-0.9-0.6-1.4-0.6
					c-0.5,0-0.9,0.2-1.3,0.5c-0.8,0.7-0.8,1.9-0.1,2.6c0.1,0.1,0.2,0.2,0.3,0.3L36,11l-0.3,0.2c-2.6,2.1-5.2,2.8-6.6,3.1
					c-0.4,0.1-1.3,0-2.3,0C26.2,14.2,25.6,14.2,25.1,14.2z"/>
			</g>
			<g>
				<ellipse class="st3" cx="13.9" cy="31.6" rx="6" ry="5.5"/>
			</g>
			<g>
				<path class="st2" d="M24.2,15.4c-9.2,0-16.7,6.2-16.7,13.8c0,1.8,0.4,3.3,1.1,4.5v-3.9c0-1,0.8-1.9,1.9-1.9c1,0,1.9,0.8,1.9,1.9
					v7.5c3,1.7,7.2,2.4,11.8,2.4c9.2,0,16.7-2.9,16.7-10.5C40.8,21.6,33.4,15.4,24.2,15.4z"/>
			</g>
			<g>
				<path class="st5" d="M24.2,39.9c-4.9,0-9.1-0.8-11.9-2.4c-0.1,0-0.1-0.1-0.1-0.2v-7.5c0-0.9-0.7-1.6-1.6-1.6
					c-0.9,0-1.6,0.7-1.6,1.6v3.9c0,0.1-0.1,0.2-0.2,0.2c-0.1,0-0.2,0-0.3-0.1c-0.8-1.4-1.2-2.9-1.2-4.7c0-7.8,7.6-14.1,16.9-14.1
					s16.9,6.3,16.9,14.1C41.1,36.1,35.1,39.9,24.2,39.9z M12.6,37.2c2.8,1.5,6.8,2.3,11.5,2.3c6.1,0,16.4-1.3,16.4-10.2
					c0-7.5-7.4-13.6-16.4-13.6c-9.1,0-16.4,6.1-16.4,13.6c0,1.2,0.2,2.4,0.6,3.4v-2.8c0-1.2,1-2.1,2.1-2.1c1.2,0,2.1,1,2.1,2.1V37.2
					z"/>
			</g>
			<g>
				<path class="st2" d="M41.9,20.3c-2,0.8-3.8,1-5,1.1c-0.9,0-3.6-0.8-4.7-0.8c-4.3-0.1-7.8,3.4-7.9,7.7c-0.1,4.3,3.4,7.8,7.7,7.9
					c3.8,0.1,6.2-2.1,7.7-6.1c1-2.6,2.6-4.9,4.2-6.7C42.9,22.5,42.3,21.5,41.9,20.3z"/>
			</g>
			<g>
				<path class="st5" d="M32,36.4C32,36.4,32,36.4,32,36.4l-0.2,0c-2.1,0-4.2-0.9-5.6-2.4c-1.5-1.5-2.3-3.6-2.3-5.7
					c0.1-4.4,3.7-7.9,8-7.9l0.1,0c0.6,0,1.6,0.2,2.5,0.4c0.8,0.2,1.7,0.4,2.1,0.4c1.4,0,3.9-0.4,6.7-1.8c0-0.1-0.1-0.1-0.1-0.2
					C43,18.6,42.9,18,43,17.3s0.5-1.2,1-1.5c0.4-0.3,0.9-0.4,1.3-0.4c0.8,0,1.6,0.4,2,1.1c0.5,0.7,0.5,1.5,0.2,2.3
					c0.8,0,1.6,0.4,2,1.1c0.7,1.1,0.4,2.6-0.7,3.3c-0.4,0.3-0.9,0.4-1.3,0.4c-0.8,0-1.6-0.4-2-1.1c-0.1-0.1-0.2-0.3-0.2-0.5
					c-1.8,1.8-4.1,4.7-5.5,8.1C38.3,34.4,35.7,36.4,32,36.4z M32,20.9c-4.1,0-7.5,3.3-7.5,7.4c0,2,0.7,3.9,2.1,5.4
					c1.4,1.4,3.3,2.3,5.3,2.3l0.1,0c3.5,0,5.9-1.9,7.3-6c1.5-3.7,4-6.7,5.9-8.6l0.3-0.3l0.1,0.5c0,0.3,0.1,0.5,0.3,0.7
					c0.4,0.5,1,0.9,1.6,0.9c0.4,0,0.7-0.1,1.1-0.3c0.9-0.6,1.1-1.8,0.5-2.7c-0.4-0.6-1.2-1-2-0.8l-0.6,0.1l0.4-0.5
					c0.5-0.6,0.5-1.5,0-2.1c-0.4-0.5-1-0.9-1.6-0.9c-0.4,0-0.7,0.1-1.1,0.3c-0.4,0.3-0.7,0.7-0.8,1.2c-0.1,0.5,0,1,0.3,1.4
					c0.1,0.1,0.1,0.2,0.3,0.3l0.2,0.2L44,19.6c-2.9,1.7-5.7,2-7.1,2.1l-0.1,0c-0.5,0-1.3-0.2-2.2-0.4c-0.9-0.2-1.9-0.4-2.4-0.4
					L32,20.9z"/>
			</g>
			<g>
				<g>
					<circle class="st7" cx="13" cy="37.3" r="1.8"/>
				</g>
				<g>
					<path class="st5" d="M13,39.4c-1.1,0-2.1-0.9-2.1-2.1c0-1.1,0.9-2.1,2.1-2.1c1.1,0,2.1,0.9,2.1,2.1C15,38.5,14.1,39.4,13,39.4z
						 M13,35.8c-0.9,0-1.6,0.7-1.6,1.6c0,0.9,0.7,1.6,1.6,1.6s1.6-0.7,1.6-1.6C14.5,36.5,13.8,35.8,13,35.8z"/>
				</g>
			</g>
			<g>
				<g>
					<circle class="st7" cx="17.6" cy="38.9" r="1.8"/>
				</g>
				<g>
					<path class="st5" d="M17.6,41c-1.1,0-2.1-0.9-2.1-2.1c0-1.1,0.9-2.1,2.1-2.1c1.1,0,2.1,0.9,2.1,2.1C19.6,40.1,18.7,41,17.6,41z
						 M17.6,37.4c-0.9,0-1.6,0.7-1.6,1.6c0,0.9,0.7,1.6,1.6,1.6s1.6-0.7,1.6-1.6C19.1,38.1,18.4,37.4,17.6,37.4z"/>
				</g>
			</g>
			<g>
				<g>
					<circle class="st7" cx="22.6" cy="39.5" r="1.8"/>
				</g>
				<g>
					<path class="st5" d="M22.6,41.5c-1.1,0-2.1-0.9-2.1-2.1c0-1.1,0.9-2.1,2.1-2.1c1.1,0,2.1,0.9,2.1,2.1
						C24.7,40.6,23.8,41.5,22.6,41.5z M22.6,37.9c-0.9,0-1.6,0.7-1.6,1.6c0,0.9,0.7,1.6,1.6,1.6c0.9,0,1.6-0.7,1.6-1.6
						C24.2,38.6,23.5,37.9,22.6,37.9z"/>
				</g>
			</g>
			<g>
				<g>
					<circle class="st7" cx="40.1" cy="34.5" r="1.8"/>
				</g>
				<g>
					<path class="st5" d="M40.1,36.6c-1.1,0-2.1-0.9-2.1-2.1c0-1.1,0.9-2.1,2.1-2.1c1.1,0,2.1,0.9,2.1,2.1
						C42.1,35.7,41.2,36.6,40.1,36.6z M40.1,33c-0.9,0-1.6,0.7-1.6,1.6c0,0.9,0.7,1.6,1.6,1.6c0.9,0,1.6-0.7,1.6-1.6
						C41.6,33.7,40.9,33,40.1,33z"/>
				</g>
			</g>
		</g>
		<g>
			<circle class="st3" cx="14.4" cy="22.7" r="1.6"/>
		</g>
		<g>
			<circle class="st3" cx="17.5" cy="22.7" r="0.6"/>
		</g>
		<g>
			<circle class="st3" cx="27.1" cy="27.2" r="0.8"/>
		</g>
	</g>
	<g>
		<circle class="st6" cx="14" cy="9.9" r="3"/>
	</g>
	<g>
		<path class="st5" d="M21.6,12c-0.8,0-1.5-0.7-1.5-1.5c0-0.8,0.7-1.5,1.5-1.5c0.8,0,1.5,0.7,1.5,1.5C23.2,11.4,22.5,12,21.6,12z
			 M21.6,9.5c-0.6,0-1,0.5-1,1c0,0.6,0.5,1,1,1c0.6,0,1-0.5,1-1C22.7,10,22.2,9.5,21.6,9.5z"/>
	</g>
	<g>
		<path class="st5" d="M46.5,29.4c-0.7,0-1.2-0.6-1.2-1.2c0-0.7,0.6-1.2,1.2-1.2c0.7,0,1.2,0.6,1.2,1.2
			C47.7,28.8,47.1,29.4,46.5,29.4z M46.5,27.4c-0.4,0-0.7,0.3-0.7,0.7c0,0.4,0.3,0.7,0.7,0.7c0.4,0,0.7-0.3,0.7-0.7
			C47.2,27.7,46.9,27.4,46.5,27.4z"/>
	</g>
	<g>
		<circle class="st2" cx="7.1" cy="15.1" r="1.7"/>
	</g>
</g>
</svg>
