<?xml version="1.0" encoding="utf-8"?>
<!-- Generator: Adobe Illustrator 19.0.0, SVG Export Plug-In . SVG Version: 6.00 Build 0)  -->
<svg version="1.1" id="Layer_1" xmlns="http://www.w3.org/2000/svg" xmlns:xlink="http://www.w3.org/1999/xlink" x="0px" y="0px"
	 viewBox="0 0 50 50" style="enable-background:new 0 0 50 50;" xml:space="preserve">
<style type="text/css">
	.st0{display:none;}
	.st1{display:inline;}
	.st2{fill:#FFFFFF;}
	.st3{fill:#555555;}
	.st4{fill:#6DBD47;}
	.st5{fill:#51B5CF;}
	.st6{fill:#2E2E2E;}
	.st7{fill:#8FA620;}
	.st8{fill:#F56D57;}
	.st9{fill:#FBAB18;}
</style>
<g class="st0">
	<g class="st1">
		<g>
			<rect x="3.2" y="21" class="st2" width="19.9" height="25.4"/>
		</g>
		<g>
			<path class="st3" d="M22.9,26.1v0.7v19.4H3.5V21.3h17.3h0.7v-0.6h-0.7H2.9v25.9h20.5V26.7v-0.7H22.9z"/>
		</g>
		<g>
			<g>
				<rect x="0.3" y="21" class="st4" width="19.9" height="25.4"/>
			</g>
		</g>
		<g>
			<path class="st3" d="M20.5,46.7H0v-26h20.5V46.7z M0.6,46.1h19.4V21.3H0.6V46.1z"/>
		</g>
		<g>
			<circle class="st2" cx="5.7" cy="24.1" r="1"/>
		</g>
		<g>
			<circle class="st2" cx="15" cy="24.1" r="1"/>
		</g>
		<g>
			<path class="st3" d="M15.3,24.4h-0.6v-4.2c0-2.4-1.9-4.3-4.3-4.3C8,15.9,6,17.9,6,20.3v4.2H5.5v-4.2c0-2.7,2.2-4.9,4.9-4.9
				c2.7,0,4.9,2.2,4.9,4.9V24.4z"/>
		</g>
		<g>
			<rect x="15.4" y="35.4" class="st2" width="19.9" height="14.1"/>
		</g>
		<g>
			<path class="st3" d="M35.6,49.8H15.1V35.1h20.5V49.8z M15.7,49.2h19.4V35.7H15.7V49.2z"/>
		</g>
		<g>
			<rect x="12.5" y="35.4" class="st2" width="19.9" height="14.1"/>
		</g>
		<g>
			<path class="st3" d="M32.7,49.8H12.2V35.1h20.5V49.8z M12.8,49.2h19.4V35.7H12.8V49.2z"/>
		</g>
		<g>
			<g>
				<circle class="st5" cx="17.9" cy="38.5" r="1"/>
			</g>
		</g>
		<g>
			<g>
				<circle class="st5" cx="27.2" cy="38.5" r="1"/>
			</g>
		</g>
		<g>
			<path class="st3" d="M27.4,38.8h-0.6v-4.2c0-2.4-1.9-4.3-4.3-4.3c-2.4,0-4.3,1.9-4.3,4.3v4.2h-0.6v-4.2c0-2.7,2.2-4.9,4.9-4.9
				c2.7,0,4.9,2.2,4.9,4.9V38.8z"/>
		</g>
		<g>
			<g>
				<rect x="39" y="42.3" class="st3" width="5.2" height="0.6"/>
			</g>
			<g>
				<rect x="41.3" y="40" class="st3" width="0.6" height="5.2"/>
			</g>
		</g>
		<g>
			<g>
				<rect x="15" y="2.1" class="st3" width="4.3" height="0.6"/>
			</g>
			<g>
				<rect x="16.9" y="0.2" class="st3" width="0.6" height="4.3"/>
			</g>
		</g>
		<g>
			<path class="st3" d="M18,18.2c-0.9,0-1.6-0.7-1.6-1.6c0-0.9,0.7-1.6,1.6-1.6c0.9,0,1.6,0.7,1.6,1.6C19.7,17.4,18.9,18.2,18,18.2z
				 M18,15.4c-0.6,0-1.1,0.5-1.1,1.1c0,0.6,0.5,1.1,1.1,1.1s1.1-0.5,1.1-1.1C19.1,15.9,18.6,15.4,18,15.4z"/>
		</g>
		<g>
			<path class="st5" d="M50,18.9c0,1.7-1.4,3.1-3.1,3.1c-1.7,0-3.1-1.4-3.1-3.1c0-0.3,0-0.5,0.1-0.8h4.9v-1.7
				C49.5,17,50,17.9,50,18.9z"/>
		</g>
		<g>
			<circle class="st5" cx="9.9" cy="10.1" r="1.6"/>
		</g>
		<g>
			<rect x="37.9" y="47.7" class="st3" width="11.6" height="0.6"/>
		</g>
		<g>
			<rect x="2.4" y="14.3" class="st3" width="4.2" height="0.6"/>
		</g>
	</g>
</g>
<g>
	<g>
		<g>
			<polygon class="st2" points="22.2,25.8 22.2,44.8 4,44.8 4,21.6 20.9,21.6 20.9,21.9 22,21.9 22,25.8 			"/>
		</g>
		<g>
			<path class="st6" d="M22.4,23c0,0.1,0,0.1,0.1,0.2v-0.3C22.4,22.9,22.4,23,22.4,23z M22,25.8v18.7H4.3V21.9h16.6v-0.5H3.8V45
				h18.7V25.8H22z"/>
		</g>
		<g>
			<g>
				<rect x="1.4" y="21.6" class="st7" width="18.2" height="23.1"/>
			</g>
		</g>
		<g>
			<path class="st6" d="M1.1,21.4V45h18.7V21.4H1.1z M19.3,44.5H1.6V21.9h17.6V44.5z"/>
		</g>
		<g>
			<circle class="st2" cx="6.3" cy="24.5" r="0.9"/>
		</g>
		<g>
			<circle class="st2" cx="14.7" cy="24.5" r="0.9"/>
		</g>
		<g>
			<path class="st6" d="M15,24.8h-0.5V21c0-2.2-1.8-3.9-3.9-3.9c-2.2,0-3.9,1.8-3.9,3.9v3.8H6.1V21c0-2.5,2-4.5,4.5-4.5
				c2.5,0,4.5,2,4.5,4.5V24.8z"/>
		</g>
		<g>
			<rect x="15.1" y="34.7" class="st2" width="18.2" height="12.9"/>
		</g>
		<g>
			<path class="st6" d="M14.9,34.5v13.4h18.7V34.5H14.9z M33,47.3H15.4V35H33V47.3z"/>
		</g>
		<g>
			<rect x="12.5" y="34.7" class="st2" width="18.2" height="12.9"/>
		</g>
		<g>
			<path class="st6" d="M12.2,34.5v13.4h18.7V34.5H12.2z M30.4,47.3H12.7V35h17.6V47.3z"/>
		</g>
		<g>
			<g>
				<circle class="st8" cx="17.4" cy="37.6" r="0.9"/>
			</g>
		</g>
		<g>
			<g>
				<circle class="st8" cx="25.9" cy="37.6" r="0.9"/>
			</g>
		</g>
		<g>
			<path class="st6" d="M26.1,37.8h-0.5v-3.8c0-2.2-1.8-3.9-3.9-3.9c-2.2,0-3.9,1.8-3.9,3.9v3.8h-0.5v-3.8c0-2.5,2-4.5,4.5-4.5
				c2.5,0,4.5,2,4.5,4.5V37.8z"/>
		</g>
		<g>
			<g>
				<rect x="36.6" y="41" class="st6" width="4.7" height="0.5"/>
			</g>
			<g>
				<rect x="38.7" y="38.9" class="st6" width="0.5" height="4.7"/>
			</g>
		</g>
		<g>
			<g>
				<rect x="14.8" y="4.4" class="st6" width="4" height="0.5"/>
			</g>
			<g>
				<rect x="16.5" y="2.7" class="st6" width="0.5" height="4"/>
			</g>
		</g>
		<g>
			<path class="st6" d="M17.5,16c-0.8,0-1.5,0.7-1.5,1.5c0,0.8,0.7,1.5,1.5,1.5c0.8,0,1.5-0.7,1.5-1.5C19,16.7,18.4,16,17.5,16z
				 M17.5,18.5c-0.5,0-1-0.4-1-1c0-0.5,0.4-1,1-1c0.5,0,1,0.4,1,1C18.5,18.1,18.1,18.5,17.5,18.5z"/>
		</g>
		<g>
			<path class="st9" d="M46.7,19.7c0,0.1,0,0.2,0,0.4c0,0.2-0.1,0.5-0.2,0.7c-0.3,0.7-0.8,1.3-1.5,1.6c-0.2,0.1-0.4,0.2-0.7,0.2
				c-0.2,0-0.3,0-0.5,0c-0.4,0-0.7-0.1-1.1-0.2c-0.2-0.1-0.5-0.2-0.7-0.4v-4.5c0.2-0.1,0.4-0.3,0.7-0.4v0.8H46
				c0.2,0.2,0.3,0.4,0.4,0.7C46.6,18.9,46.7,19.3,46.7,19.7z"/>
		</g>
		<g>
			<circle class="st9" cx="10.1" cy="11.7" r="1.4"/>
		</g>
		<g>
			<rect x="35.6" y="46" class="st6" width="10.5" height="0.5"/>
		</g>
		<g>
			<rect x="3.3" y="15.5" class="st6" width="3.8" height="0.5"/>
		</g>
	</g>
	<g>
		<g>
			<rect x="26.7" y="6.8" class="st9" width="21.9" height="3.5"/>
			<path class="st9" d="M38.3,13c-0.6,0-1.2,0.3-1.5,0.7c0.3,0.3,0.4,0.8,0.4,1.2c0,0.5-0.2,0.9-0.4,1.2c0.4,0.5,0.9,0.7,1.5,0.7
				c1.1,0,2-0.9,2-2S39.4,13,38.3,13z"/>
		</g>
		<g>
			<path class="st7" d="M36.7,13.7c-0.4-0.5-0.9-0.7-1.5-0.7c-1.1,0-2,0.9-2,2s0.9,2,2,2c0.6,0,1.2-0.3,1.5-0.7
				c0.3-0.3,0.4-0.8,0.4-1.2C37.2,14.5,37,14,36.7,13.7z"/>
			<path class="st9" d="M28.4,12.7h-0.2c-1.1,1.3-1.1,3.1,0,4.4h0.2c0.5,0,0.9-0.4,0.9-0.9v-2.6C29.3,13.1,28.9,12.7,28.4,12.7z"/>
			<path class="st7" d="M24.6,12.7c0.4,0.6,0.6,1.4,0.6,2.2c0,0.8-0.2,1.5-0.6,2.2h2.8c-0.4-0.6-0.6-1.4-0.6-2.2
				c0-0.8,0.2-1.5,0.6-2.2H24.6z"/>
			<path class="st9" d="M23.6,12.7c-0.5,0-0.9,0.4-0.9,0.9v2.6c0,0.5,0.4,0.9,0.9,0.9h0.2c1.1-1.3,1.1-3.1,0-4.4H23.6z"/>
		</g>
		<g>
			<path class="st6" d="M47.7,2.1H27.5c-0.7,0-1.2,0.5-1.2,1.2v7c0,0.2,0.1,0.3,0.3,0.3h21.6v6.7c0,0.3-0.2,0.6-0.6,0.6h-4.9v-6.2
				c0-0.2-0.2-0.3-0.3-0.3s-0.3,0.1-0.3,0.3v13.6c0,0.3-0.2,0.6-0.5,0.6H21.4c-0.3,0-0.5-0.3-0.5-0.6v-14c0-0.3,0.2-0.5,0.5-0.5h3.9
				c0.2,0,0.3-0.1,0.3-0.3c0-0.2-0.1-0.3-0.3-0.3h-3.9c-0.7,0-1.2,0.5-1.2,1.2v14c0,0.7,0.5,1.2,1.2,1.2h20.1c0.7,0,1.2-0.5,1.2-1.2
				v-6.7h4.9c0.7,0,1.2-0.5,1.2-1.2v-14C48.9,2.7,48.4,2.1,47.7,2.1z M48.2,10H27V7.2h21.2V10z M27,3.3c0-0.3,0.3-0.5,0.5-0.5h20.1
				c0.3,0,0.6,0.3,0.6,0.5v3.2H27V3.3z"/>
			<path class="st6" d="M48.6,20.1h-3.9c-0.2,0-0.3,0.1-0.3,0.3V28h-8.9c-0.2,0-0.3,0.1-0.3,0.3s0.1,0.3,0.3,0.3h9.2
				c0.2,0,0.3-0.1,0.3-0.3v-7.5h3.6c0.2,0,0.3-0.1,0.3-0.3C48.9,20.2,48.7,20.1,48.6,20.1z"/>
			<path class="st6" d="M33.7,28h-1.8c-0.2,0-0.3,0.1-0.3,0.3s0.1,0.3,0.3,0.3h1.8c0.2,0,0.3-0.1,0.3-0.3S33.9,28,33.7,28z"/>
			<path class="st6" d="M28.5,23c0,0.2,0.1,0.3,0.3,0.3h6.6c0.2,0,0.3-0.1,0.3-0.3c0-0.2-0.1-0.3-0.3-0.3h-6.6
				C28.7,22.7,28.5,22.8,28.5,23z"/>
			<path class="st6" d="M27.4,23c0,0.2-0.1,0.3-0.3,0.3h-4.4c-0.1,0-0.2-0.1-0.3-0.2c0,0-0.1-0.1-0.1-0.2s0-0.1,0.1-0.2
				c0-0.1,0.1-0.2,0.3-0.2h4.4C27.3,22.7,27.4,22.8,27.4,23z"/>
			<path class="st6" d="M25.8,19.6h-3.1c-0.2,0-0.3,0.1-0.3,0.3s0.1,0.3,0.3,0.3h3.1c0.2,0,0.3-0.1,0.3-0.3S26,19.6,25.8,19.6z"/>
			<path class="st6" d="M30.6,19.6h-3.1c-0.2,0-0.3,0.1-0.3,0.3s0.1,0.3,0.3,0.3h3.1c0.2,0,0.3-0.1,0.3-0.3S30.8,19.6,30.6,19.6z"/>
			<path class="st6" d="M32,20c0,0.2,0.1,0.3,0.3,0.3h3.1c0.2,0,0.3-0.1,0.3-0.3s-0.1-0.3-0.3-0.3h-3.1C32.2,19.6,32,19.8,32,20z"/>
			<path class="st6" d="M37.2,19.6c-0.2,0-0.3,0.1-0.3,0.3s0.1,0.3,0.3,0.3h3.1c0.2,0,0.3-0.1,0.3-0.3s-0.1-0.3-0.3-0.3H37.2z"/>
			<path class="st6" d="M38.3,12.6c-0.6,0-1.1,0.2-1.5,0.6c-0.4-0.4-1-0.6-1.5-0.6c-1.3,0-2.3,1-2.3,2.3c0,1.3,1,2.3,2.3,2.3
				c0.6,0,1.1-0.2,1.5-0.6c0.4,0.4,0.9,0.6,1.5,0.6c1.3,0,2.3-1,2.3-2.3C40.6,13.7,39.5,12.6,38.3,12.6z M38.3,16.6
				c-0.4,0-0.8-0.2-1.1-0.5c0.2-0.4,0.3-0.8,0.3-1.2c0-0.4-0.1-0.8-0.3-1.2c0.3-0.3,0.7-0.5,1.1-0.5c0.9,0,1.7,0.7,1.7,1.6
				C39.9,15.8,39.2,16.6,38.3,16.6z M35.2,16.6c-0.9,0-1.6-0.7-1.6-1.6c0-0.9,0.7-1.6,1.6-1.6c0.9,0,1.6,0.7,1.6,1.6
				C36.9,15.8,36.1,16.6,35.2,16.6z"/>
		</g>
	</g>
</g>
</svg>
