<?xml version="1.0" encoding="utf-8"?>
<!-- Generator: Adobe Illustrator 19.0.0, SVG Export Plug-In . SVG Version: 6.00 Build 0)  -->
<svg version="1.1" id="Layer_1" xmlns="http://www.w3.org/2000/svg" xmlns:xlink="http://www.w3.org/1999/xlink" x="0px" y="0px"
	 viewBox="0 0 50 50" style="enable-background:new 0 0 50 50;" xml:space="preserve">
<style type="text/css">
	.st0{display:none;}
	.st1{display:inline;}
	.st2{fill:#555555;}
	.st3{fill:#6DBD47;}
	.st4{fill:#51B5CF;}
	.st5{fill:#FFFFFF;}
	.st6{fill:#2E2E2E;}
	.st7{fill:#8FA620;}
	.st8{fill:#FBAB18;}
</style>
<g class="st0">
	<g class="st1">
		<g>
			<rect x="41.3" y="6.8" class="st2" width="4.5" height="0.5"/>
		</g>
		<g>
			<rect x="43.3" y="4.8" class="st2" width="0.5" height="4.5"/>
		</g>
	</g>
	<g class="st1">
		<g>
			<rect x="4.8" y="31.8" class="st2" width="6.2" height="0.5"/>
		</g>
		<g>
			<rect x="7.6" y="29" class="st2" width="0.5" height="6.2"/>
		</g>
	</g>
	<g class="st1">
		<polygon class="st3" points="49.6,45.4 7.1,45.4 14.1,30.9 43.2,30.9 		"/>
	</g>
	<g class="st1">
		<path class="st2" d="M50,45.7H6.7l7.3-15h29.4L50,45.7z M7.5,45.2h41.8l-6.2-14H14.3L7.5,45.2z"/>
	</g>
	<g class="st1">
		<path class="st4" d="M41.7,16c0,9.9-14,23.6-14,23.6s-14-13-14-23.6c0-7.7,6.3-14,14-14C35.4,2,41.7,8.3,41.7,16z"/>
	</g>
	<g class="st1">
		<g>
			<circle class="st5" cx="27.6" cy="16" r="5"/>
		</g>
		<g>
			<g>
				<path class="st5" d="M36,14h-0.7c-0.8,0-1.4-0.6-1.4-1.3v-2.3h0.5v2.3c0,0.4,0.4,0.8,0.9,0.8H36c0.5,0,0.9-0.3,0.9-0.8v-2.3h0.5
					v2.3C37.4,13.4,36.8,14,36,14z"/>
			</g>
			<g>
				<rect x="35.4" y="10.4" class="st5" width="0.5" height="10"/>
			</g>
		</g>
		<g>
			<g>
				<rect x="19.3" y="15.1" class="st5" width="0.5" height="5.6"/>
			</g>
			<g>
				<path class="st5" d="M19.6,15.2c-0.9,0-1.7-1.1-1.7-2.5c0-1.4,0.7-2.5,1.7-2.5c0.9,0,1.7,1.1,1.7,2.5
					C21.3,14.1,20.5,15.2,19.6,15.2z M19.6,10.6c-0.6,0-1.2,0.9-1.2,2c0,1.1,0.5,2,1.2,2c0.6,0,1.2-0.9,1.2-2
					C20.8,11.6,20.2,10.6,19.6,10.6z"/>
			</g>
		</g>
	</g>
	<g class="st1">
		<path class="st2" d="M27.7,40l-0.2-0.2C26.9,39.3,13.4,26.6,13.4,16c0-7.9,6.4-14.3,14.3-14.3C35.6,1.7,42,8.1,42,16
			c0,9.9-13.5,23.2-14.1,23.8L27.7,40z M27.7,2.2c-7.6,0-13.8,6.2-13.8,13.8c0,9.7,12.1,21.7,13.8,23.3c1.6-1.6,13.8-14.1,13.8-23.3
			C41.5,8.4,35.3,2.2,27.7,2.2z"/>
	</g>
	<g class="st1">
		<path class="st2" d="M45.1,28.6c-1.7,0-3-1.4-3-3c0-1.7,1.4-3,3-3c1.7,0,3,1.4,3,3C48.2,27.2,46.8,28.6,45.1,28.6z M45.1,23
			c-1.4,0-2.5,1.1-2.5,2.5c0,1.4,1.1,2.5,2.5,2.5c1.4,0,2.5-1.1,2.5-2.5C47.7,24.1,46.5,23,45.1,23z"/>
	</g>
	<g class="st1">
		<path class="st2" d="M12.3,5.9c-0.9,0-1.6-0.7-1.6-1.6c0-0.9,0.7-1.6,1.6-1.6c0.9,0,1.6,0.7,1.6,1.6C13.9,5.1,13.2,5.9,12.3,5.9z
			 M12.3,3.1c-0.6,0-1.1,0.5-1.1,1.1c0,0.6,0.5,1.1,1.1,1.1c0.6,0,1.1-0.5,1.1-1.1C13.4,3.6,12.9,3.1,12.3,3.1z"/>
	</g>
	<g class="st1">
		<circle class="st3" cx="7.7" cy="22.5" r="4.3"/>
	</g>
	<g class="st1">
		<rect x="18.6" y="40.1" class="st5" width="11.8" height="0.6"/>
	</g>
	<g class="st1">
		<rect x="36.1" y="42.6" class="st5" width="7.5" height="0.5"/>
	</g>
	<g class="st1">
		<rect x="37.4" y="33.6" class="st5" width="2.6" height="0.5"/>
	</g>
	<g class="st1">
		<rect y="47.8" class="st2" width="24.6" height="0.5"/>
	</g>
	<g class="st1">
		<rect x="36.4" y="2" class="st2" width="5.8" height="0.5"/>
	</g>
</g>
<g>
	<g>
		<g>
			<rect x="41.3" y="6.8" class="st6" width="4.5" height="0.5"/>
		</g>
		<g>
			<rect x="43.3" y="4.8" class="st6" width="0.5" height="4.5"/>
		</g>
	</g>
	<g>
		<g>
			<rect x="4.8" y="31.8" class="st6" width="6.2" height="0.5"/>
		</g>
		<g>
			<rect x="7.6" y="29" class="st6" width="0.5" height="6.2"/>
		</g>
	</g>
	<g>
		<polygon class="st7" points="49.6,45.4 7.1,45.4 14.1,30.9 43.2,30.9 		"/>
	</g>
	<g>
		<path class="st6" d="M50,45.7H6.7l7.3-15h29.4L50,45.7z M7.5,45.2h41.8l-6.2-14H14.3L7.5,45.2z"/>
	</g>
	<g>
		<path class="st8" d="M41.7,16c0,9.9-14,23.6-14,23.6s-14-13-14-23.6c0-7.7,6.3-14,14-14C35.4,2,41.7,8.3,41.7,16z"/>
	</g>
	<g>
		<g>
			<circle class="st5" cx="27.6" cy="16" r="5"/>
		</g>
		<g>
			<path class="st6" d="M27.6,21.2c-2.9,0-5.2-2.3-5.2-5.2c0-2.9,2.3-5.2,5.2-5.2c2.9,0,5.2,2.3,5.2,5.2
				C32.8,18.9,30.4,21.2,27.6,21.2z M27.6,11.3c-2.6,0-4.7,2.1-4.7,4.7c0,2.6,2.1,4.7,4.7,4.7c2.6,0,4.7-2.1,4.7-4.7
				C32.3,13.4,30.1,11.3,27.6,11.3z"/>
		</g>
		<g>
			<g>
				<path class="st6" d="M36,14h-0.7c-0.8,0-1.4-0.6-1.4-1.3v-2.3h0.5v2.3c0,0.4,0.4,0.8,0.9,0.8H36c0.5,0,0.9-0.3,0.9-0.8v-2.3h0.5
					v2.3C37.4,13.4,36.8,14,36,14z"/>
			</g>
			<g>
				<rect x="35.4" y="10.4" class="st6" width="0.5" height="10"/>
			</g>
		</g>
		<g>
			<g>
				<rect x="19.3" y="15.1" class="st6" width="0.5" height="5.6"/>
			</g>
			<g>
				<ellipse class="st5" cx="19.6" cy="12.7" rx="1.4" ry="2.3"/>
			</g>
			<g>
				<path class="st6" d="M19.6,15.2c-0.9,0-1.7-1.1-1.7-2.5c0-1.4,0.7-2.5,1.7-2.5c0.9,0,1.7,1.1,1.7,2.5
					C21.3,14.1,20.5,15.2,19.6,15.2z M19.6,10.6c-0.6,0-1.2,0.9-1.2,2c0,1.1,0.5,2,1.2,2c0.6,0,1.2-0.9,1.2-2
					C20.8,11.6,20.2,10.6,19.6,10.6z"/>
			</g>
		</g>
	</g>
	<g>
		<path class="st6" d="M27.7,40l-0.2-0.2C26.9,39.3,13.4,26.6,13.4,16c0-7.9,6.4-14.3,14.3-14.3C35.6,1.7,42,8.1,42,16
			c0,9.9-13.5,23.2-14.1,23.8L27.7,40z M27.7,2.2c-7.6,0-13.8,6.2-13.8,13.8c0,9.7,12.1,21.7,13.8,23.3c1.6-1.6,13.8-14.1,13.8-23.3
			C41.5,8.4,35.3,2.2,27.7,2.2z"/>
	</g>
	<g>
		<path class="st6" d="M45.1,28.6c-1.7,0-3-1.4-3-3c0-1.7,1.4-3,3-3c1.7,0,3,1.4,3,3C48.2,27.2,46.8,28.6,45.1,28.6z M45.1,23
			c-1.4,0-2.5,1.1-2.5,2.5c0,1.4,1.1,2.5,2.5,2.5c1.4,0,2.5-1.1,2.5-2.5C47.7,24.1,46.5,23,45.1,23z"/>
	</g>
	<g>
		<path class="st6" d="M12.3,5.9c-0.9,0-1.6-0.7-1.6-1.6c0-0.9,0.7-1.6,1.6-1.6c0.9,0,1.6,0.7,1.6,1.6C13.9,5.1,13.2,5.9,12.3,5.9z
			 M12.3,3.1c-0.6,0-1.1,0.5-1.1,1.1c0,0.6,0.5,1.1,1.1,1.1c0.6,0,1.1-0.5,1.1-1.1C13.4,3.6,12.9,3.1,12.3,3.1z"/>
	</g>
	<g>
		<circle class="st7" cx="7.7" cy="22.5" r="4.3"/>
	</g>
	<g>
		<rect x="18.6" y="39.6" class="st6" width="11.8" height="0.5"/>
	</g>
	<g>
		<rect x="36.1" y="42.6" class="st6" width="7.5" height="0.5"/>
	</g>
	<g>
		<rect x="37.4" y="33.6" class="st6" width="2.6" height="0.5"/>
	</g>
	<g>
		<rect y="47.8" class="st6" width="24.6" height="0.5"/>
	</g>
	<g>
		<rect x="36.4" y="2" class="st6" width="5.8" height="0.5"/>
	</g>
</g>
</svg>
